<?xml version="1.0" encoding="UTF-8" standalone="no"?><!DOCTYPE svg PUBLIC "-//W3C//DTD SVG 1.1//EN" "http://www.w3.org/Graphics/SVG/1.1/DTD/svg11.dtd"><svg width="100%" height="100%" viewBox="0 0 65 32" version="1.1" xmlns="http://www.w3.org/2000/svg" xmlns:xlink="http://www.w3.org/1999/xlink" xml:space="preserve" xmlns:serif="http://www.serif.com/" style="fill-rule:evenodd;clip-rule:evenodd;stroke-linejoin:round;stroke-miterlimit:1.41421;"><path d="M12.7,19.1c0.9,0 1.6,0.7 1.6,1.6c0,0.9 -0.7,1.6 -1.6,1.6l-11.1,0c-0.9,0 -1.6,-0.7 -1.6,-1.6l0,-19.1c0,-0.9 0.7,-1.6 1.6,-1.6c0.9,0 1.6,0.7 1.6,1.6l0,17.5l9.5,0Zm9.4,4.2c-4.4,0 -8,-3.6 -8,-8c0,-4.4 3.6,-8 8,-8c4.4,0 8,3.6 8,8c0,4.4 -3.6,8 -8,8Zm0,-12.9c-2.688,0 -4.9,2.212 -4.9,4.9c0,2.688 2.212,4.9 4.9,4.9c2.688,0 4.9,-2.212 4.9,-4.9c-0.1,-2.7 -2.3,-4.9 -4.9,-4.9Zm25.2,4.9l0,8c0,4.4 -3.6,8 -8,8c-3.1,0 -5.9,-1.7 -7.2,-4.5c-0.4,-0.8 -0.1,-1.7 0.7,-2.1c0.8,-0.4 1.7,-0.1 2.1,0.7c0.811,1.696 2.531,2.78 4.411,2.78c2.641,0 4.829,-2.14 4.889,-4.78l0,-1.8c-1.4,1 -3,1.7 -4.9,1.7c-4.4,0 -8,-3.6 -8,-8c0,-4.4 3.6,-8 8,-8c4.4,-0.1 8,3.5 8,8Zm-8,4.8c2.69,-0.005 4.9,-2.22 4.9,-4.91c0,-2.694 -2.216,-4.91 -4.91,-4.91c-0.003,0 -0.007,0 -0.01,0c-2.69,0.005 -4.9,2.22 -4.9,4.91c0,2.694 2.216,4.91 4.91,4.91c0.003,0 0.007,0 0.01,0Zm21.8,-9.7c2.127,1.106 3.475,3.303 3.5,5.7c0,3.4 -2.7,6 -6,6.3l-8.5,0c-0.9,0 -1.6,-0.7 -1.6,-1.6l0,-19.2c0,-0.9 0.7,-1.6 1.6,-1.6l6.2,0c3.4,0.2 6.2,2.9 6.2,6.4c0,1.5 -0.5,2.9 -1.4,4Zm-1.8,-4c0,-1.8 -1.5,-3.2 -3.3,-3.2l-4.4,0l0,6.4l4.4,0c1.8,0 3.3,-1.4 3.3,-3.2Zm-1,12.7c1.6,0 3,-1.4 3,-3.1c0,-1.6 -1.4,-3.2 -3.2,-3.2l-6.5,0l0,6.3l6.7,0Z" style="fill:#fff;fill-rule:nonzero;"/></svg>